<svg width="22" height="20" viewBox="0 0 22 20" fill="none" xmlns="http://www.w3.org/2000/svg">
<path fill-rule="evenodd" clip-rule="evenodd" d="M18.5332 7.35262L20.7827 9.49503C20.9247 9.62912 21.0046 9.81165 21.0046 10.0021C21.0046 10.1925 20.9247 10.375 20.7827 10.5091C20.642 10.6443 20.4503 10.7203 20.2504 10.7203C20.0504 10.7203 19.8588 10.6443 19.718 10.5091L18.7507 9.58073V19.2859C18.7507 19.6803 18.4149 20 18.0008 20H3.00376C2.58962 20 2.2539 19.6803 2.2539 19.2859V9.58073L1.28659 10.5091C1.1458 10.6443 0.954139 10.7203 0.7542 10.7203C0.554261 10.7203 0.362602 10.6443 0.221805 10.5091C0.0798485 10.375 0 10.1925 0 10.0021C0 9.81165 0.0798485 9.62912 0.221805 9.49503L2.47136 7.35262L9.96988 0.211241C10.1107 0.0760454 10.3023 0 10.5023 0C10.7022 0 10.8939 0.0760454 11.0347 0.211241L18.5332 7.35262ZM3.75361 8.15245V18.5717H17.2509V8.15245L10.5023 1.72521L3.75361 8.15245Z" fill="white"/>
</svg>
