<svg width="24" height="24" viewBox="0 0 24 24" fill="none" xmlns="http://www.w3.org/2000/svg">
<path d="M15.9973 2.40002H7.99732C7.20167 2.40002 6.43861 2.7161 5.876 3.2787C5.31339 3.84131 4.99732 4.60437 4.99732 5.40002V21.4C4.99662 21.5762 5.0425 21.7495 5.1303 21.9023C5.2181 22.0551 5.34472 22.1819 5.49732 22.27C5.64934 22.3578 5.82179 22.404 5.99732 22.404C6.17286 22.404 6.3453 22.3578 6.49732 22.27L11.9973 19.09L17.4973 22.27C17.6497 22.3564 17.8221 22.4012 17.9973 22.4C18.1725 22.4012 18.3449 22.3564 18.4973 22.27C18.6499 22.1819 18.7765 22.0551 18.8643 21.9023C18.9521 21.7495 18.998 21.5762 18.9973 21.4V5.40002C18.9973 4.60437 18.6813 3.84131 18.1186 3.2787C17.556 2.7161 16.793 2.40002 15.9973 2.40002ZM16.9973 19.67L12.4973 17.07C12.3453 16.9823 12.1729 16.9361 11.9973 16.9361C11.8218 16.9361 11.6493 16.9823 11.4973 17.07L6.99732 19.67V5.40002C6.99732 5.13481 7.10268 4.88045 7.29022 4.69292C7.47775 4.50538 7.73211 4.40002 7.99732 4.40002H15.9973C16.2625 4.40002 16.5169 4.50538 16.7044 4.69292C16.892 4.88045 16.9973 5.13481 16.9973 5.40002V19.67Z" fill="#3A3F4D"/>
</svg>
