<svg width="24" height="24" viewBox="0 0 24 24" fill="none" xmlns="http://www.w3.org/2000/svg">
<path fill-rule="evenodd" clip-rule="evenodd" d="M7.99732 2.40002H15.9973C16.793 2.40002 17.556 2.7161 18.1186 3.2787C18.6813 3.84131 18.9973 4.60437 18.9973 5.40002V21.4C18.998 21.5762 18.9521 21.7495 18.8643 21.9023C18.7765 22.0551 18.6499 22.1819 18.4973 22.27C18.3449 22.3564 18.1725 22.4012 17.9973 22.4C17.8221 22.4012 17.6497 22.3564 17.4973 22.27L11.9973 19.09L6.49732 22.27C6.3453 22.3578 6.17286 22.404 5.99732 22.404C5.82179 22.404 5.64934 22.3578 5.49732 22.27C5.34472 22.1819 5.2181 22.0551 5.1303 21.9023C5.0425 21.7495 4.99662 21.5762 4.99732 21.4V5.40002C4.99732 4.60437 5.31339 3.84131 5.876 3.2787C6.43861 2.7161 7.20167 2.40002 7.99732 2.40002Z" fill="#FF6666"/>
</svg>
